<?xml version="1.0" encoding="utf-8"?>
<!-- Generator: Adobe Illustrator 23.0.2, SVG Export Plug-In . SVG Version: 6.00 Build 0)  -->
<svg version="1.1" id="layer1" xmlns="http://www.w3.org/2000/svg" xmlns:xlink="http://www.w3.org/1999/xlink" x="0px" y="0px"
	 viewBox="0 0 20.6 20.6" style="enable-background:new 0 0 20.6 20.6;" xml:space="preserve">
<style type="text/css">
	.st0{fill:#EE608C;}
</style>
<path class="st0" d="M10.3,0C4.62,0,0,4.62,0,10.3c0,5.68,4.62,10.3,10.3,10.3c5.68,0,10.3-4.62,10.3-10.3C20.6,4.62,15.98,0,10.3,0
	z M8.93,4.66C8.93,4.3,9.16,4,9.44,4h1.73c0.28,0,0.51,0.29,0.51,0.66v2.46c0,0.16-0.01,0.43-0.02,0.6l-0.38,4.58
	c-0.03,0.35-0.26,0.62-0.53,0.62H9.81c-0.27,0-0.5-0.27-0.53-0.63L8.95,7.73C8.94,7.56,8.93,7.3,8.93,7.14V4.66z M11.44,16.47
	c-0.27,0.31-0.66,0.48-1.12,0.48c-0.46,0-0.86-0.18-1.15-0.52c-0.23-0.27-0.34-0.59-0.34-0.94c0-0.34,0.1-0.65,0.31-0.94
	C9.4,14.19,9.78,14,10.22,14c0.02-0.01,0.07-0.01,0.12-0.01c0.38,0,0.72,0.14,0.99,0.41c0.29,0.29,0.44,0.64,0.45,1.03
	C11.81,15.8,11.7,16.17,11.44,16.47z"/>
</svg>
